<svg xmlns="http://www.w3.org/2000/svg" width="96" height="96" viewBox="0 0 96 96" fill="none">
<rect x="4" y="4" width="88" height="88" rx="22" fill="#F7F1FF"/>
<ellipse cx="48" cy="76" rx="22" ry="7" fill="#000" opacity="0.1"/>
<path d="M18 22 L20 28 L26 30 L20 32 L18 38 L16 32 L10 30 L16 28 Z" fill="#FFFFFF" opacity="0.75"/>
<circle cx="78" cy="22" r="2.6" fill="#FFFFFF" opacity="0.65"/>
<circle cx="82" cy="34" r="2.0" fill="#FFFFFF" opacity="0.55"/>
<path d="M76 20 C76 14 82 12 85 16 C88 12 94 14 94 20 C94 28 85 32 85 32 C85 32 76 28 76 20 Z" fill="#FF8FB3" opacity="0.9" stroke="#5A4A45" stroke-width="2.0" stroke-linejoin="round"/>
<path d="M85 32 C84 40 78 44 72 48" stroke="#5A4A45" stroke-width="2.0" stroke-linecap="round" opacity="0.6"/>
<ellipse cx="48" cy="66" rx="22" ry="18" fill="#F6D9B7" stroke="#5A4A45" stroke-width="2.6"/>
<ellipse cx="48" cy="69" rx="12" ry="9" fill="#FBE7D2" opacity="0.92"/>
<path d="M30 66 C24 64 22 58 26 54 C30 50 36 56 36 60" fill="#F6D9B7" stroke="#5A4A45" stroke-width="2.6" stroke-linecap="round" stroke-linejoin="round"/>
<path d="M66 66 C72 64 74 58 70 54 C66 50 60 56 60 60" fill="#F6D9B7" stroke="#5A4A45" stroke-width="2.6" stroke-linecap="round" stroke-linejoin="round"/>
<path d="M48 52 L52 60 L61 61 L54 67 L56 76 L48 71 L40 76 L42 67 L35 61 L44 60 Z" fill="#FFE57A" stroke="#5A4A45" stroke-width="2.6" stroke-linejoin="round" opacity="0.96"/>
<circle cx="48" cy="64" r="2.2" fill="#FFFFFF" opacity="0.9"/>
<circle cx="48" cy="40" r="22" fill="#F6D9B7" stroke="#5A4A45" stroke-width="2.6"/>
<circle cx="30" cy="24" r="9" fill="#F6D9B7" stroke="#5A4A45" stroke-width="2.6"/>
<circle cx="66" cy="24" r="9" fill="#F6D9B7" stroke="#5A4A45" stroke-width="2.6"/>
<circle cx="30" cy="24" r="5.5" fill="#FBE7D2" opacity="0.9"/>
<circle cx="66" cy="24" r="5.5" fill="#FBE7D2" opacity="0.9"/>
<path d="M35 40 Q 40 44 45 40" stroke="#5A4A45" stroke-width="2.6" stroke-linecap="round"/>
<circle cx="59" cy="40" r="2.4" fill="#5A4A45"/>
<circle cx="58.2" cy="39.2" r="0.8" fill="#FFFFFF" opacity="0.9"/>
<ellipse cx="33" cy="46" rx="5.4" ry="3.8" fill="#FFB6C1" opacity="0.55"/>
<ellipse cx="63" cy="46" rx="5.4" ry="3.8" fill="#FFB6C1" opacity="0.55"/>
<ellipse cx="48" cy="47" rx="3.6" ry="2.9" fill="#5A4A45" opacity="0.82"/>
<path d="M42 52 Q48 57 54 52" stroke="#5A4A45" stroke-width="2.4" stroke-linecap="round" fill="none"/>
<ellipse cx="40" cy="82" rx="6" ry="4.5" fill="#F6D9B7" stroke="#5A4A45" stroke-width="2.6"/>
<ellipse cx="56" cy="82" rx="6" ry="4.5" fill="#F6D9B7" stroke="#5A4A45" stroke-width="2.6"/>
</svg>