<svg xmlns="http://www.w3.org/2000/svg" viewBox="0 0 128 128">
  <rect width="128" height="128" rx="24" fill="#fff3dd" />
  <circle cx="64" cy="74" r="31" fill="#b88a6a" stroke="#4f4267" stroke-width="3" />
  <circle cx="45" cy="54" r="9.5" fill="#b88a6a" stroke="#4f4267" stroke-width="3" />
  <circle cx="83" cy="54" r="9.5" fill="#b88a6a" stroke="#4f4267" stroke-width="3" />
  <ellipse cx="64" cy="82" rx="9.5" ry="7.5" fill="#fff7ee" />
  <circle cx="52" cy="74" r="3" fill="#4f4267" />
  <circle cx="76" cy="74" r="3" fill="#4f4267" />
  <ellipse cx="64" cy="81" rx="3.1" ry="2.3" fill="#4f4267" />
  <path d="M60 87c1.2 1.2 2.3 1.7 4 1.7s2.8-.5 4-1.7" fill="none" stroke="#4f4267" stroke-width="2.4" stroke-linecap="round" />
  <circle cx="55" cy="81" r="2.3" fill="#ffc7db" />
  <circle cx="73" cy="81" r="2.3" fill="#ffc7db" />
  <ellipse cx="64" cy="36" rx="14" ry="6" fill="#ffd98f" stroke="#4f4267" stroke-width="2.3" />
  <ellipse cx="64" cy="30" rx="12" ry="5" fill="#ffd07c" stroke="#4f4267" stroke-width="2.1" />
  <path d="M66 25c3 4 2 7-1 9" fill="none" stroke="#a86a33" stroke-width="2.1" stroke-linecap="round" />
</svg>
