<svg xmlns="http://www.w3.org/2000/svg" viewBox="0 0 128 128">
  <rect width="128" height="128" rx="24" fill="#eaf8f2" />
  <circle cx="60" cy="72" r="30" fill="#fffdfb" stroke="#4f4267" stroke-width="3" />
  <circle cx="42" cy="52" r="9.5" fill="#fffdfb" stroke="#4f4267" stroke-width="3" />
  <circle cx="78" cy="52" r="9.5" fill="#fffdfb" stroke="#4f4267" stroke-width="3" />
  <ellipse cx="60" cy="80" rx="9" ry="7.2" fill="#fff7ee" />
  <circle cx="49" cy="72" r="3" fill="#4f4267" />
  <circle cx="71" cy="72" r="3" fill="#4f4267" />
  <ellipse cx="60" cy="79" rx="3" ry="2.2" fill="#4f4267" />
  <path d="M56 85c1.2 1.2 2.3 1.7 4 1.7s2.8-.5 4-1.7" fill="none" stroke="#4f4267" stroke-width="2.4" stroke-linecap="round" />
  <circle cx="51" cy="79" r="2.2" fill="#ffc7db" />
  <circle cx="69" cy="79" r="2.2" fill="#ffc7db" />
  <rect x="85" y="66" width="22" height="14" rx="6" fill="#fffdfb" stroke="#4f4267" stroke-width="2.4" />
  <path d="M106 69a6 6 0 1 1 0 8" fill="none" stroke="#4f4267" stroke-width="2.2" />
  <path d="M90 63c2-2 2-4 0-6M95 62c2-2 2-4 0-6" fill="none" stroke="#4f4267" stroke-width="1.8" stroke-linecap="round" />
</svg>
