<svg xmlns="http://www.w3.org/2000/svg" viewBox="0 0 96 96" role="img" aria-label="Bunny strawberry sticker">
  <rect width="96" height="96" rx="18" fill="#f6f2ff"/>
  <!-- head -->
  <ellipse cx="48" cy="59" rx="25" ry="21" fill="#ffffff" stroke="#e4deef" stroke-width="2"/>
  <!-- ears -->
  <ellipse cx="37" cy="27" rx="7.5" ry="17" fill="#ffffff" stroke="#e4deef" stroke-width="2"/>
  <ellipse cx="59" cy="27" rx="7.5" ry="17" fill="#ffffff" stroke="#e4deef" stroke-width="2"/>
  <ellipse cx="37" cy="27" rx="3" ry="11" fill="#ffd8ef"/>
  <ellipse cx="59" cy="27" rx="3" ry="11" fill="#ffd8ef"/>
  <!-- face -->
  <ellipse cx="40" cy="58" rx="2.8" ry="3.8" fill="#34344f"/>
  <ellipse cx="56" cy="58" rx="2.8" ry="3.8" fill="#34344f"/>
  <ellipse cx="48" cy="64" rx="3.8" ry="2.9" fill="#ffcf73"/>
  <path d="M44 69c1.5 2 2.8 2.9 4 2.9s2.5-.9 4-2.9" fill="none" stroke="#34344f" stroke-width="2" stroke-linecap="round"/>
  <path d="M30 66c3 3 6 4 9 4" fill="none" stroke="#ff94be" stroke-width="2.4" stroke-linecap="round"/>
  <path d="M66 66c-3 3-6 4-9 4" fill="none" stroke="#ff94be" stroke-width="2.4" stroke-linecap="round"/>
  <!-- strawberry -->
  <path d="M74 72c0 7-6 12-12 12s-12-5-12-12 6-12 12-12 12 5 12 12z" fill="#ff6ea5" stroke="#e7568e" stroke-width="2"/>
  <path d="M62 57c4-1 7-4 8-8-4 1-8 3-8 8z" fill="#b8f0c5" stroke="#86d9a0" stroke-width="1.6" stroke-linejoin="round"/>
  <circle cx="58" cy="70" r="1.2" fill="#ffd4e8"/>
  <circle cx="66" cy="70" r="1.2" fill="#ffd4e8"/>
  <circle cx="62" cy="75" r="1.2" fill="#ffd4e8"/>
</svg>
