<svg xmlns="http://www.w3.org/2000/svg" viewBox="0 0 96 96" role="img" aria-label="Frog lily pad sticker">
  <rect width="96" height="96" rx="18" fill="#f2fff6"/>
  <!-- head -->
  <ellipse cx="48" cy="54" rx="28" ry="22" fill="#ffffff" stroke="#d9eadf" stroke-width="2"/>
  <!-- eyes bumps -->
  <circle cx="34" cy="35" r="9" fill="#ffffff" stroke="#d9eadf" stroke-width="2"/>
  <circle cx="62" cy="35" r="9" fill="#ffffff" stroke="#d9eadf" stroke-width="2"/>
  <circle cx="34" cy="35" r="3" fill="#2f3045"/>
  <circle cx="62" cy="35" r="3" fill="#2f3045"/>
  <!-- cheeks -->
  <path d="M30 56c3 3 6 4 9 4" fill="none" stroke="#ff9bbd" stroke-width="2.4" stroke-linecap="round"/>
  <path d="M66 56c-3 3-6 4-9 4" fill="none" stroke="#ff9bbd" stroke-width="2.4" stroke-linecap="round"/>
  <!-- smile -->
  <path d="M38 60c4 4 16 4 20 0" fill="none" stroke="#2f3045" stroke-width="2.4" stroke-linecap="round"/>
  <!-- lily pad -->
  <ellipse cx="48" cy="76" rx="24" ry="10" fill="#b8f0c5"/>
  <path d="M48 76l18-6" stroke="#86d9a0" stroke-width="2" stroke-linecap="round"/>
  <path d="M48 76l-18-6" stroke="#86d9a0" stroke-width="2" stroke-linecap="round"/>
  <path d="M48 76v-10" stroke="#86d9a0" stroke-width="2" stroke-linecap="round"/>
  <path d="M48 76c0-4 4-8 10-10" stroke="#86d9a0" stroke-width="2" stroke-linecap="round"/>
  <!-- tiny flower -->
  <circle cx="72" cy="24" r="3" fill="#ffd7ea"/>
  <circle cx="76" cy="24" r="3" fill="#ffd7ea"/>
  <circle cx="74" cy="20" r="3" fill="#ffd7ea"/>
  <circle cx="74" cy="28" r="3" fill="#ffd7ea"/>
  <circle cx="74" cy="24" r="2" fill="#ffe08a"/>
</svg>
