<svg xmlns="http://www.w3.org/2000/svg" width="96" height="96" viewBox="0 0 96 96" fill="none">
<rect x="4" y="4" width="88" height="88" rx="22" fill="#F2FFF1"/>
<ellipse cx="48" cy="76" rx="22" ry="7" fill="#000" opacity="0.1"/>
<circle cx="20" cy="24" r="2.4" fill="#FFE57A" opacity="0.9"/>
<circle cx="76" cy="26" r="2.4" fill="#FF8FB3" opacity="0.85"/>
<path d="M18 34 l4 4" stroke="#BFE8FF" stroke-width="2.4" stroke-linecap="round"/>
<path d="M78 40 l-4 4" stroke="#CFF7D8" stroke-width="2.4" stroke-linecap="round"/>
<path d="M18 22 L20 28 L26 30 L20 32 L18 38 L16 32 L10 30 L16 28 Z" fill="#FFFFFF" opacity="0.75"/>
<path d="M78 18 L80 22 L84 24 L80 26 L78 30 L76 26 L72 24 L76 22 Z" fill="#FFFFFF" opacity="0.65"/>
<circle cx="80" cy="36" r="2.4" fill="#FFFFFF" opacity="0.6"/>
<path d="M18 60 L6 48 L10 72 Z" fill="#73AEFF" stroke="#5A4A45" stroke-width="2.6" stroke-linejoin="round"/>
<path d="M18 60 C26 42 42 32 58 32 C74 32 86 44 86 60 C86 76 74 86 58 86 C42 86 26 76 18 60 Z" fill="#7FB7FF" stroke="#5A4A45" stroke-width="2.6" stroke-linejoin="round"/>
<path d="M56 32 L62 18 L68 32" fill="#73AEFF" stroke="#5A4A45" stroke-width="2.6" stroke-linejoin="round"/>
<ellipse cx="60" cy="70" rx="18" ry="14" fill="#E7F3FF" opacity="0.96"/>
<path d="M44 66 C38 62 36 56 40 52 C44 48 50 54 50 60" fill="#7FB7FF" stroke="#5A4A45" stroke-width="2.6" stroke-linecap="round" stroke-linejoin="round"/>
<path d="M76 66 C82 62 84 56 80 52 C76 48 70 54 70 60" fill="#7FB7FF" stroke="#5A4A45" stroke-width="2.6" stroke-linecap="round" stroke-linejoin="round"/>
<circle cx="52" cy="50" r="2.4" fill="#5A4A45"/>
<circle cx="66" cy="50" r="2.4" fill="#5A4A45"/>
<ellipse cx="45" cy="56" rx="5.4" ry="3.8" fill="#FFB6C1" opacity="0.55"/>
<ellipse cx="75" cy="56" rx="5.4" ry="3.8" fill="#FFB6C1" opacity="0.55"/>
<path d="M60 54 m-2.4 0 a2.4 2.4 0 1 0 4.8 0 a2.4 2.4 0 1 0 -4.8 0" fill="#5A4A45" opacity="0.7"/>
<path d="M48 58 Q60 70 72 58" stroke="#5A4A45" stroke-width="2.8" stroke-linecap="round" fill="none"/>
<path d="M44 62 l2 3 l2-3" fill="#FFFFFF" opacity="0.96"/><path d="M48 62 l2 3 l2-3" fill="#FFFFFF" opacity="0.96"/><path d="M52 62 l2 3 l2-3" fill="#FFFFFF" opacity="0.96"/><path d="M56 62 l2 3 l2-3" fill="#FFFFFF" opacity="0.96"/><path d="M60 62 l2 3 l2-3" fill="#FFFFFF" opacity="0.96"/><path d="M64 62 l2 3 l2-3" fill="#FFFFFF" opacity="0.96"/>
<path d="M30 76 q-6 4 -10 0" stroke="#5A4A45" stroke-width="2.2" stroke-linecap="round" opacity="0.35"/>
<path d="M88 76 q6 4 10 0" stroke="#5A4A45" stroke-width="2.2" stroke-linecap="round" opacity="0.35"/>
</svg>