<svg xmlns="http://www.w3.org/2000/svg" width="96" height="96" viewBox="0 0 96 96" fill="none">
<rect x="4" y="4" width="88" height="88" rx="22" fill="#FFF2F8"/>
<ellipse cx="48" cy="76" rx="22" ry="7" fill="#000" opacity="0.1"/>
<path d="M18 22 L20 28 L26 30 L20 32 L18 38 L16 32 L10 30 L16 28 Z" fill="#FFFFFF" opacity="0.75"/>
<path d="M78 18 L80 22 L84 24 L80 26 L78 30 L76 26 L72 24 L76 22 Z" fill="#FFFFFF" opacity="0.65"/>
<circle cx="80" cy="36" r="2.4" fill="#FFFFFF" opacity="0.6"/>
<ellipse cx="48" cy="62" rx="22" ry="24" fill="#76CFE6" stroke="#5A4A45" stroke-width="2.6"/>
<ellipse cx="48" cy="66" rx="14" ry="16" fill="#FFFFFF" opacity="0.96"/>
<circle cx="48" cy="36" r="18" fill="#76CFE6" stroke="#5A4A45" stroke-width="2.6"/>
<path d="M66 56 C76 50 80 42 76 38 C70 32 60 42 62 50" fill="#76CFE6" stroke="#5A4A45" stroke-width="2.6" stroke-linecap="round" stroke-linejoin="round"/>
<ellipse cx="28" cy="60" rx="8" ry="12" fill="#76CFE6" stroke="#5A4A45" stroke-width="2.6" transform="rotate(18 28 60)"/>
<path d="M38 18 h20 l-2 8 H40 Z" fill="#FFFFFF" stroke="#5A4A45" stroke-width="2.6" stroke-linejoin="round"/>
<path d="M36 26 h24" stroke="#5A4A45" stroke-width="2.6" stroke-linecap="round"/>
<circle cx="60" cy="22" r="2.4" fill="#FF8FB3" opacity="0.9"/>
<path d="M42 50 L32 44 L32 56 Z" fill="#FF8FB3" stroke="#5A4A45" stroke-width="2.6" stroke-linejoin="round"/>
<path d="M54 50 L64 44 L64 56 Z" fill="#FF8FB3" stroke="#5A4A45" stroke-width="2.6" stroke-linejoin="round"/>
<circle cx="48" cy="50" r="4" fill="#FFD6E6" stroke="#5A4A45" stroke-width="2.6"/>
<circle cx="40" cy="34" r="2.4" fill="#5A4A45"/>
<circle cx="56" cy="34" r="2.4" fill="#5A4A45"/>
<ellipse cx="33" cy="40" rx="5.4" ry="3.8" fill="#FFB6C1" opacity="0.55"/>
<ellipse cx="63" cy="40" rx="5.4" ry="3.8" fill="#FFB6C1" opacity="0.55"/>
<path d="M48 41 m-3 0 a3 3 0 1 0 6 0 a3 3 0 1 0 -6 0" fill="#F2B36E" opacity="0.96"/>
<path d="M42 44 Q48 48 54 44" stroke="#5A4A45" stroke-width="2.4" stroke-linecap="round" fill="none"/>
<path d="M76 64 v-12 q0 -4 4 -4 v12 q0 4 -4 4 z" fill="#BFE8FF" opacity="0.9" stroke="#5A4A45" stroke-width="2.0" stroke-linejoin="round"/>
<circle cx="76" cy="66" r="3" fill="#BFE8FF" opacity="0.9" stroke="#5A4A45" stroke-width="2.0"/>
</svg>