<svg xmlns="http://www.w3.org/2000/svg" width="96" height="96" viewBox="0 0 96 96" fill="none">
<rect x="4" y="4" width="88" height="88" rx="22" fill="#F4F0FF"/>
<ellipse cx="48" cy="75" rx="22" ry="7" fill="#000000" opacity="0.1"/>
<ellipse cx="48" cy="67" rx="20" ry="16" fill="#FFFFFF" stroke="#6B5A55" stroke-width="2.5"/>
<ellipse cx="34" cy="66" rx="7" ry="6" fill="#FFFFFF" stroke="#6B5A55" stroke-width="2.5"/>
<ellipse cx="62" cy="66" rx="7" ry="6" fill="#FFFFFF" stroke="#6B5A55" stroke-width="2.5"/>
<circle cx="48" cy="44" r="20" fill="#FFFFFF" stroke="#6B5A55" stroke-width="2.5"/>
<path d="M34 32 L28 20 L38 24 Z" fill="#F7F7F7" stroke="#6B5A55" stroke-width="2.5" stroke-linejoin="round"/>
<path d="M62 32 L68 20 L58 24 Z" fill="#F7F7F7" stroke="#6B5A55" stroke-width="2.5" stroke-linejoin="round"/>
<path d="M35 41 Q 39 44 43 41" stroke="#6B5A55" stroke-width="2.5" stroke-linecap="round"/><path d="M53 41 Q 57 44 61 41" stroke="#6B5A55" stroke-width="2.5" stroke-linecap="round"/><ellipse cx="34" cy="49" rx="5.2" ry="3.6" fill="#FFB6C1" opacity="0.55"/><ellipse cx="62" cy="49" rx="5.2" ry="3.6" fill="#FFB6C1" opacity="0.55"/><path d="M48 48 m -2.2 0 a 2.2 2.2 0 1 0 4.4 0 a 2.2 2.2 0 1 0 -4.4 0" fill="#6B5A55" opacity="0.75"/><path d="M48 51 v 2.6" stroke="#6B5A55" stroke-width="2.2" stroke-linecap="round"/><path d="M48 54 Q 44 56 41 53.5" stroke="#6B5A55" stroke-width="2.2" stroke-linecap="round" fill="none"/><path d="M48 54 Q 52 56 55 53.5" stroke="#6B5A55" stroke-width="2.2" stroke-linecap="round" fill="none"/>
<path d="M26 58 C32 52 40 50 48 50 C56 50 64 52 70 58 C66 66 58 72 48 72 C38 72 30 66 26 58 Z" fill="#E7E0FF" stroke="#6B5A55" stroke-width="2.5" stroke-linejoin="round" opacity="0.95"/>
<path d="M60 58 v18 q0 6 -6 6" stroke="#6B5A55" stroke-width="2.5" stroke-linecap="round" fill="none" opacity="0.8"/>
<path d="M30 60 q18 6 36 0" stroke="#FFFFFF" opacity="0.75" stroke-width="2.2" stroke-linecap="round"/>
</svg>