<svg xmlns="http://www.w3.org/2000/svg" width="96" height="96" viewBox="0 0 96 96" fill="none">
<rect x="4" y="4" width="88" height="88" rx="22" fill="#F7F1FF"/>
<ellipse cx="48" cy="74" rx="22" ry="7" fill="#000000" opacity="0.1"/>
<ellipse cx="48" cy="66" rx="22" ry="18" fill="#F6D9B7" stroke="#7A5B4A" stroke-width="2.5"/>
<ellipse cx="48" cy="69" rx="12" ry="9" fill="#FBE7D2" opacity="0.9"/>
<circle cx="48" cy="42" r="22" fill="#F6D9B7" stroke="#7A5B4A" stroke-width="2.5"/>
<circle cx="30" cy="26" r="9" fill="#F6D9B7" stroke="#7A5B4A" stroke-width="2.5"/>
<circle cx="66" cy="26" r="9" fill="#F6D9B7" stroke="#7A5B4A" stroke-width="2.5"/>
<circle cx="30" cy="26" r="5.5" fill="#FBE7D2" opacity="0.9"/>
<circle cx="66" cy="26" r="5.5" fill="#FBE7D2" opacity="0.9"/>
<path d="M35 40 Q 39 43 43 40" stroke="#7A5B4A" stroke-width="2.5" stroke-linecap="round"/><path d="M53 40 Q 57 43 61 40" stroke="#7A5B4A" stroke-width="2.5" stroke-linecap="round"/><ellipse cx="34" cy="48" rx="5.2" ry="3.6" fill="#FFB6C1" opacity="0.55"/><ellipse cx="62" cy="48" rx="5.2" ry="3.6" fill="#FFB6C1" opacity="0.55"/><ellipse cx="48" cy="47" rx="3.2" ry="2.6" fill="#7A5B4A" opacity="0.85"/><path d="M42 52 Q 48 55 54 52" stroke="#7A5B4A" stroke-width="2.2" stroke-linecap="round" fill="none"/>
<ellipse cx="30" cy="64" rx="8" ry="6" fill="#F6D9B7" stroke="#7A5B4A" stroke-width="2.5"/>
<ellipse cx="66" cy="64" rx="8" ry="6" fill="#F6D9B7" stroke="#7A5B4A" stroke-width="2.5"/>
<path d="M20 52 Q48 44 76 52 L76 82 Q48 90 20 82 Z" fill="#D8F0FF" opacity="0.95" stroke="#7A5B4A" stroke-width="2.5" stroke-linejoin="round"/>
<path d="M24 60 Q48 54 72 60" stroke="#FFFFFF" opacity="0.8" stroke-width="2.2" stroke-linecap="round"/>
<path d="M24 69 Q48 63 72 69" stroke="#FFFFFF" opacity="0.7" stroke-width="2.2" stroke-linecap="round"/>
</svg>