<svg xmlns="http://www.w3.org/2000/svg" width="96" height="96" viewBox="0 0 96 96" fill="none">
<rect x="4" y="4" width="88" height="88" rx="22" fill="#F1F8FF"/>
<ellipse cx="48" cy="74" rx="22" ry="7" fill="#000000" opacity="0.1"/>
<ellipse cx="48" cy="66" rx="22" ry="18" fill="#F6D9B7" stroke="#7A5B4A" stroke-width="2.5"/>
<ellipse cx="48" cy="69" rx="12" ry="9" fill="#FBE7D2" opacity="0.9"/>
<circle cx="48" cy="42" r="22" fill="#F6D9B7" stroke="#7A5B4A" stroke-width="2.5"/>
<circle cx="30" cy="26" r="9" fill="#F6D9B7" stroke="#7A5B4A" stroke-width="2.5"/>
<circle cx="66" cy="26" r="9" fill="#F6D9B7" stroke="#7A5B4A" stroke-width="2.5"/>
<circle cx="30" cy="26" r="5.5" fill="#FBE7D2" opacity="0.9"/>
<circle cx="66" cy="26" r="5.5" fill="#FBE7D2" opacity="0.9"/>
<circle cx="39" cy="40" r="2.3" fill="#7A5B4A"/><circle cx="57" cy="40" r="2.3" fill="#7A5B4A"/><ellipse cx="34" cy="48" rx="5.2" ry="3.6" fill="#FFB6C1" opacity="0.55"/><ellipse cx="62" cy="48" rx="5.2" ry="3.6" fill="#FFB6C1" opacity="0.55"/><ellipse cx="48" cy="47" rx="3.2" ry="2.6" fill="#7A5B4A" opacity="0.85"/><path d="M42 52 Q 48 55 54 52" stroke="#7A5B4A" stroke-width="2.2" stroke-linecap="round" fill="none"/>
<ellipse cx="30" cy="60" rx="8" ry="6" fill="#F6D9B7" stroke="#7A5B4A" stroke-width="2.5"/>
<ellipse cx="66" cy="58" rx="8" ry="6" fill="#F6D9B7" stroke="#7A5B4A" stroke-width="2.5"/>
<path d="M28 78 q8 6 20 6 q12 0 20 -6" stroke="#7A5B4A" stroke-width="2.5" stroke-linecap="round" fill="none" opacity="0.7"/>
<path d="M22 74 q6 -6 10 0" stroke="#7A5B4A" stroke-width="2.5" stroke-linecap="round" fill="none" opacity="0.5"/>
<path d="M74 74 q-6 -6 -10 0" stroke="#7A5B4A" stroke-width="2.5" stroke-linecap="round" fill="none" opacity="0.5"/>
</svg>