<svg xmlns="http://www.w3.org/2000/svg" viewBox="0 0 128 128">
  <rect width="128" height="128" rx="24" fill="#efe9ff" />
  <circle cx="64" cy="72" r="32" fill="#fffdfd" stroke="#4f4267" stroke-width="3" />
  <circle cx="52" cy="71" r="3.1" fill="#4f4267" />
  <circle cx="76" cy="71" r="3.1" fill="#4f4267" />
  <ellipse cx="64" cy="79" rx="4.2" ry="3.1" fill="#ff9fbf" />
  <path d="M57 88c1.9 1.9 4.2 2.8 7 2.8s5.1-0.9 7-2.8" fill="none" stroke="#4f4267" stroke-width="2.8" stroke-linecap="round" />
  <path d="M64 36l3.5 8.5 8.5 3.5-8.5 3.5-3.5 8.5-3.5-8.5-8.5-3.5 8.5-3.5z" fill="#ffd96f" stroke="#4f4267" stroke-width="2.2" />
  <circle cx="35" cy="39" r="7" fill="#fff2bc" stroke="#4f4267" stroke-width="2" />
  <circle cx="93" cy="39" r="7" fill="#fff2bc" stroke="#4f4267" stroke-width="2" />
  <circle cx="35" cy="39" r="1.8" fill="#4f4267" />
  <circle cx="93" cy="39" r="1.8" fill="#4f4267" />
  <circle cx="54" cy="80" r="2.3" fill="#ffc7db" />
  <circle cx="74" cy="80" r="2.3" fill="#ffc7db" />
</svg>
