<svg xmlns="http://www.w3.org/2000/svg" viewBox="0 0 96 96" role="img" aria-label="Bunny ribbon sticker">
  <rect width="96" height="96" rx="18" fill="#f6f2ff"/>
  <ellipse cx="48" cy="59" rx="25" ry="21" fill="#ffffff" stroke="#e4deef" stroke-width="2"/>
  <ellipse cx="37" cy="27" rx="7.5" ry="17" fill="#ffffff" stroke="#e4deef" stroke-width="2"/>
  <ellipse cx="59" cy="27" rx="7.5" ry="17" fill="#ffffff" stroke="#e4deef" stroke-width="2"/>
  <ellipse cx="37" cy="27" rx="3" ry="11" fill="#ffd8ef"/>
  <ellipse cx="59" cy="27" rx="3" ry="11" fill="#ffd8ef"/>
  <ellipse cx="40" cy="58" rx="2.8" ry="3.8" fill="#34344f"/>
  <ellipse cx="56" cy="58" rx="2.8" ry="3.8" fill="#34344f"/>
  <ellipse cx="48" cy="64" rx="3.8" ry="2.9" fill="#ffcf73"/>
  <path d="M44 69c1.5 2 2.8 2.9 4 2.9s2.5-.9 4-2.9" fill="none" stroke="#34344f" stroke-width="2" stroke-linecap="round"/>
  <path d="M30 66c3 3 6 4 9 4" fill="none" stroke="#ff94be" stroke-width="2.4" stroke-linecap="round"/>
  <path d="M66 66c-3 3-6 4-9 4" fill="none" stroke="#ff94be" stroke-width="2.4" stroke-linecap="round"/>
</svg>
