<svg xmlns="http://www.w3.org/2000/svg" viewBox="0 0 128 128">
  <rect width="128" height="128" rx="24" fill="#dff4ff" />
  <ellipse cx="40" cy="56" rx="12" ry="15.5" fill="#fffdfd" stroke="#4f4267" stroke-width="3.4" />
  <ellipse cx="88" cy="56" rx="12" ry="15.5" fill="#fffdfd" stroke="#4f4267" stroke-width="3.4" />
  <circle cx="64" cy="73" r="33.5" fill="#fffdfd" stroke="#4f4267" stroke-width="3.4" />
  <ellipse cx="53" cy="73" rx="3.2" ry="3.6" fill="#4f4267" />
  <ellipse cx="75" cy="73" rx="3.2" ry="3.6" fill="#4f4267" />
  <ellipse cx="64" cy="81" rx="4.4" ry="3.4" fill="#ff9fbf" />
  <path d="M56 90c2.1 2.3 4.6 3.4 8 3.4s5.9-1.1 8-3.4" fill="none" stroke="#4f4267" stroke-width="3" stroke-linecap="round" />
  <path d="M64 44c2.9-5 10.2-3.2 10.2 2.9 0 5.5-10.2 11-10.2 11s-10.2-5.5-10.2-11c0-6.1 7.3-7.9 10.2-2.9z" fill="#ff84b3" stroke="#4f4267" stroke-width="2.1" />
  <circle cx="56" cy="84" r="2.5" fill="#ffc7db" />
  <circle cx="72" cy="84" r="2.5" fill="#ffc7db" />
</svg>
