<svg xmlns="http://www.w3.org/2000/svg" viewBox="0 0 128 128">
  <rect width="128" height="128" rx="24" fill="#ebe2ff" />
  <ellipse cx="50" cy="36" rx="10.5" ry="22" fill="#fffdfd" stroke="#4f4267" stroke-width="3.4" />
  <ellipse cx="78" cy="36" rx="10.5" ry="22" fill="#fffdfd" stroke="#4f4267" stroke-width="3.4" />
  <ellipse cx="50" cy="38" rx="4.2" ry="11" fill="#ffd6e9" />
  <ellipse cx="78" cy="38" rx="4.2" ry="11" fill="#ffd6e9" />
  <circle cx="64" cy="73" r="33.5" fill="#fffdfd" stroke="#4f4267" stroke-width="3.4" />
  <ellipse cx="53" cy="73" rx="3.2" ry="3.6" fill="#4f4267" />
  <path d="M71 73h9" stroke="#4f4267" stroke-width="3" stroke-linecap="round" />
  <ellipse cx="64" cy="81" rx="4.4" ry="3.4" fill="#ff9fbf" />
  <path d="M57 90c2 2.3 4.1 3.4 7 3.4s5-1.1 7-3.4" fill="none" stroke="#4f4267" stroke-width="3" stroke-linecap="round" />
  <circle cx="56" cy="84" r="2.5" fill="#ffc7db" />
  <circle cx="72" cy="84" r="2.5" fill="#ffc7db" />
  <path d="M88 52l2.5 6.2 6.2 2.5-6.2 2.5-2.5 6.2-2.5-6.2-6.2-2.5 6.2-2.5z" fill="#fff4b0" />
</svg>
